<svg width="1200" height="700" viewBox="0 0 1200 700" fill="none" xmlns="http://www.w3.org/2000/svg">
  <rect width="1200" height="700" rx="36" fill="#0A1628"/>
  <path d="M140 160H420V250H710V370H1020" stroke="#2DD4BF" stroke-width="4" stroke-linecap="round"/>
  <path d="M180 470H470V550H770V470H1030" stroke="#38BDF8" stroke-width="4" stroke-linecap="round"/>
  <path d="M320 160V470" stroke="#1E3A5F" stroke-width="3"/>
  <path d="M770 250V550" stroke="#1E3A5F" stroke-width="3"/>
  <circle cx="140" cy="160" r="18" fill="#2DD4BF"/>
  <circle cx="420" cy="160" r="18" fill="#2DD4BF"/>
  <circle cx="420" cy="250" r="18" fill="#2DD4BF"/>
  <circle cx="710" cy="250" r="18" fill="#2DD4BF"/>
  <circle cx="710" cy="370" r="18" fill="#2DD4BF"/>
  <circle cx="1020" cy="370" r="18" fill="#2DD4BF"/>
  <circle cx="180" cy="470" r="18" fill="#38BDF8"/>
  <circle cx="470" cy="470" r="18" fill="#38BDF8"/>
  <circle cx="470" cy="550" r="18" fill="#38BDF8"/>
  <circle cx="770" cy="550" r="18" fill="#38BDF8"/>
  <circle cx="770" cy="470" r="18" fill="#38BDF8"/>
  <circle cx="1030" cy="470" r="18" fill="#38BDF8"/>
  <rect x="215" y="96" width="180" height="54" rx="18" fill="#0F2239" stroke="#1F3E61"/>
  <rect x="508" y="300" width="188" height="54" rx="18" fill="#0F2239" stroke="#1F3E61"/>
  <rect x="822" y="406" width="198" height="54" rx="18" fill="#0F2239" stroke="#1F3E61"/>
</svg>
